<?xml version="1.0" standalone="no"?><!DOCTYPE svg PUBLIC "-//W3C//DTD SVG 1.1//EN" "http://www.w3.org/Graphics/SVG/1.1/DTD/svg11.dtd"><svg t="1770569390834" class="icon" viewBox="0 0 1024 1024" version="1.1" xmlns="http://www.w3.org/2000/svg" p-id="4971" xmlns:xlink="http://www.w3.org/1999/xlink" width="200" height="200"><path d="M624.32256 568.82688v210.44736c0 6.58432 3.3024 9.87136 9.87136 9.87136h121.67168c16.44032 0 32.87552-13.15328 32.87552-32.87552V568.832c0-6.56896-3.28192-9.85088-9.87136-9.85088h-144.67584c-6.56896-0.01024-9.87136 3.2768-9.87136 9.84576z" p-id="4972"></path><path d="M857.6512 14.24384H164.87424c-83.74272 0-151.63392 67.8912-151.63392 151.63392v692.77696c0 83.74272 67.8912 151.63392 151.63392 151.63392H857.6512c83.74272 0 151.63392-67.88608 151.63392-151.63392V165.87776c0-83.74272-67.8912-151.63392-151.63392-151.63392zM163.968 263.0144c0-55.90016 42.74688-98.64704 98.64704-98.64704h197.29408c19.7376 0 32.89088 16.44032 32.89088 32.87552v476.81024c0 9.87136-6.58432 16.44032-16.44032 16.44032h-32.89088c-9.85088 0-16.44032-6.56896-16.44032-16.44032V243.29216c0-6.58432-6.56896-13.15328-13.15328-13.15328H242.8928c-6.58432 0-13.15328 6.56896-13.15328 13.15328v430.76608c0 9.87136-6.58432 16.44032-16.44032 16.44032h-32.896c-9.87136 0-16.44032-6.56896-16.44032-16.44032V263.0144zM492.8 839.84896c0 9.87136-9.07776 11.06432-20.16256 11.06432s-34.56-0.512-78.34112-23.83872c-45.94688-24.48384-65.91488-62.41792-65.91488-62.41792s-9.87136 27.79136-62.48448 60.66688c-23.00928 16.44032-59.1872 23.02464-82.20672 26.30656-9.85088 0-19.72224-6.58432-19.72224-16.44032v-32.89088c0-6.56896 6.56896-13.15328 13.15328-13.15328 13.15328-3.28192 39.45984-13.15328 65.77152-29.5936 46.0288-36.16256 46.0288-101.92896 46.0288-101.92896l0.512-345.27232c0-9.87136 6.58432-16.45568 16.44032-16.45568h35.66592c9.87136 0 16.44032 6.58432 16.44032 16.45568v345.27232c0 19.22048 6.91712 83.456 60.13952 113.24416 26.8544 15.0272 45.10208 20.46464 56.90368 20.46464s17.79712 5.21216 17.79712 15.62624l-0.02048 32.89088z m361.71264-527.50336c0 9.85088-6.56896 16.44032-16.44032 16.44032h-147.97824v164.41856h147.97824c9.87136 0 16.44032 6.56896 16.44032 16.44032v246.62528c0 52.61824-42.74688 98.64704-98.64704 98.64704h-180.85376c-9.87136 0-16.44032-6.56896-16.44032-16.44032V509.63968c0-9.87136 6.56896-16.44032 16.44032-16.44032h49.31584V180.80768c0-9.87136 6.58432-16.44032 16.45568-16.44032h32.87552c9.87136 0 16.44032 6.56896 16.44032 16.44032V263.0144h147.97824c9.87136 0 16.44032 6.58432 16.44032 16.44032v32.89088z" p-id="4973"></path></svg>